<svg id="Layer_1" data-name="Layer 1" xmlns="http://www.w3.org/2000/svg" viewBox="0 0 32 32"><defs><style>.cls-1{fill:#EBFF32;}</style></defs><title>Thesis-Icons-v2</title><circle class="cls-1" cx="23.79" cy="14.8" r="1.81"/><path class="cls-1" d="M16.06,3.67a13.42,13.42,0,0,1,9.49,22.9A6.13,6.13,0,0,1,22,28.33a1.87,1.87,0,0,1-1.4-.59c-.37-.37-.39-.68-.34-1.46a4,4,0,0,0-1.17-3.5,3.63,3.63,0,0,0-2.63-1.14,8.54,8.54,0,0,0-3.72,1.26,9.44,9.44,0,0,1-4.14,1.37,6,6,0,0,1-4.24-2.12C.91,18.66,2.71,11.47,6.58,7.6a13.32,13.32,0,0,1,9.48-3.93m0-2A15.31,15.31,0,0,0,5.16,6.18C.54,10.8-1.37,19.21,3,23.56a7.93,7.93,0,0,0,5.65,2.71,11.12,11.12,0,0,0,5-1.59,7.34,7.34,0,0,1,2.81-1,1.63,1.63,0,0,1,1.21.56,2.12,2.12,0,0,1,.59,2,3.49,3.49,0,0,0,.93,3A3.85,3.85,0,0,0,22,30.33c2.56,0,4.85-2.26,4.95-2.35A15.41,15.41,0,0,0,16.06,1.67Z"/><circle class="cls-1" cx="8.33" cy="17.04" r="2.32"/><circle class="cls-1" cx="19.64" cy="9.7" r="2.32"/><circle class="cls-1" cx="12.44" cy="10.8" r="1.81"/><circle class="cls-1" cx="24.67" cy="20.41" r="1"/></svg>