<svg id="Layer_1" data-name="Layer 1" xmlns="http://www.w3.org/2000/svg" viewBox="0 0 32 32"><defs><style>.cls-1,.cls-2{fill:#292755;}.cls-2{stroke:#292755;stroke-miterlimit:10;stroke-width:0.2px;}</style></defs><title>Thesis-Icons-v2</title><circle class="cls-1" cx="12.39" cy="14.35" r="1.12"/><path class="cls-2" d="M19.83,1.4h0l-.26-.05c-.25,0-.51-.09-.86-.13l-.21,0c-.34,0-.68-.05-1-.05h0q-.56,0-1.1.06l-.6.09-.24,0-.24,0a11.1,11.1,0,0,0-6.11,3.5,11.52,11.52,0,0,0-2.9,6.8.37.37,0,0,0,0,.14V12c0,.14,0,.29,0,.43v2L3.55,19.22a2.15,2.15,0,0,0,1.59,3.16l1.54.22v1.2a3.77,3.77,0,0,0,3.76,3.76h1.07V30a.86.86,0,0,0,1.72,0v-.86h0V27.19h0v-.48a.86.86,0,0,0-.86-.86l-.13,0-.11,0H10.44a2.05,2.05,0,0,1-2-2V21.44a.37.37,0,0,0-.32-.37l-2.7-.39A.44.44,0,0,1,5.05,20L7.86,14.9a.37.37,0,0,0,0-.18v-2.3a9.57,9.57,0,0,1,9.56-9.56h.45a7.64,7.64,0,0,1,3.58.89l.16.08.16-.34h0l-.07.38A9.68,9.68,0,0,1,25.29,7a5.55,5.55,0,0,1,.85,1.44l0,.06A9.46,9.46,0,0,1,27,12.42c0,.18,0,.36,0,.54v.16s-.05.76-.11,1.11A14.14,14.14,0,0,1,24.1,21l-1.84,2.4a.38.38,0,0,0-.08.23v5.49a.36.36,0,0,0,0,.08V30a.86.86,0,0,0,1.72,0V27.61h0V24.09l1.57-2a15.85,15.85,0,0,0,3.17-7.91s.09-1.05.09-1.59A11.42,11.42,0,0,0,19.83,1.4Z"/></svg>