<svg id="Layer_1" data-name="Layer 1" xmlns="http://www.w3.org/2000/svg" xmlns:xlink="http://www.w3.org/1999/xlink" viewBox="0 0 32 32"><defs><style>.cls-1{fill:#fff;}.cls-2{fill:none;stroke:#292755;stroke-linecap:round;stroke-linejoin:round;stroke-width:2px;}.cls-3{mask:url(#mask);}.cls-4{fill:#292755;}</style><mask id="mask" x="1.58" y="11.73" width="4.49" height="4.49" maskUnits="userSpaceOnUse"><g id="mask-2"><polygon id="path-1" class="cls-1" points="1.58 11.73 1.58 16.22 6.08 16.22 6.08 11.73 1.58 11.73"/></g></mask></defs><title>Thesis-Icons-v2</title><polyline id="Stroke-1" class="cls-2" points="4.83 12.97 11.25 6.5 16.49 11.8 26.75 3.87"/><g id="Group-5"><g class="cls-3"><path id="Fill-3" class="cls-4" d="M5.42,15.55a2.25,2.25,0,1,1,0-3.18,2.25,2.25,0,0,1,0,3.18"/></g></g><path id="Fill-6" class="cls-4" d="M28.13,5.64A2.25,2.25,0,1,0,25,5.24a2.25,2.25,0,0,0,3.15.4"/><polyline id="Stroke-8" class="cls-2" points="18.37 20.85 18.37 29.29 12.7 29.29 12.7 17.53 18.37 17.53 18.37 20.85"/><polyline id="Stroke-10" class="cls-2" points="8.73 23.92 8.73 29.29 3.06 29.29 3.06 21.8 8.73 21.8 8.73 23.92"/><polyline id="Stroke-12" class="cls-2" points="28.01 16.87 28.01 29.29 22.34 29.29 22.34 11.98 28.01 11.98 28.01 16.87"/></svg>