<svg id="Layer_1" data-name="Layer 1" xmlns="http://www.w3.org/2000/svg" viewBox="0 0 32 32"><defs><style>.cls-1{fill:#EBFF32;stroke:#EBFF32;stroke-miterlimit:10;stroke-width:0.41px;}</style></defs><title>Thesis-Icons-v2</title><path class="cls-1" d="M6.28,13a.75.75,0,0,0-.75.75v3a.75.75,0,0,0,.75.75h.84L8.53,28.81a.75.75,0,0,0,.74.65H22.73a.75.75,0,0,0,.74-.65L24.89,17.5h.84a.75.75,0,0,0,.75-.75v-3a.75.75,0,0,0-.75-.75h-9V10.73a7.49,7.49,0,0,0,6.73-7.44.75.75,0,0,0-.75-.75A7.49,7.49,0,0,0,16,6.76,7.49,7.49,0,0,0,9.27,2.54a.75.75,0,0,0-.75.75,7.49,7.49,0,0,0,6.73,7.44V13ZM21.93,4.09A6,6,0,0,1,16.8,9.22,6,6,0,0,1,21.93,4.09Zm-11.86,0A6,6,0,0,1,15.2,9.22,6,6,0,0,1,10.07,4.09ZM22.07,28H9.93L8.62,17.5H23.38ZM25,14.5V16H7V14.5Z"/></svg>