<svg id="Layer_1" data-name="Layer 1" xmlns="http://www.w3.org/2000/svg" viewBox="0 0 32 32"><defs><style>.cls-1{fill:#EBFF32;}.cls-2{fill:none;stroke:#EBFF32;stroke-linecap:round;stroke-linejoin:round;stroke-width:2px;}</style></defs><title>Thesis-Icons-v2</title><path class="cls-1" d="M22.5,9a7.5,7.5,0,0,1,0,15H9.5a7.5,7.5,0,0,1,0-15h13m0-2H9.5A9.53,9.53,0,0,0,0,16.5H0A9.53,9.53,0,0,0,9.5,26h13A9.53,9.53,0,0,0,32,16.5h0A9.53,9.53,0,0,0,22.5,7Z"/><line class="cls-2" x1="9" y1="13.25" x2="9" y2="19.25"/><line class="cls-2" x1="12" y1="16.25" x2="6" y2="16.25"/><circle class="cls-1" cx="22" cy="13.5" r="1.25"/><circle class="cls-1" cx="22" cy="19" r="1.25"/><circle class="cls-1" cx="24.75" cy="16.25" r="1.25"/><circle class="cls-1" cx="19.25" cy="16.25" r="1.25"/></svg>