<svg id="Layer_1" data-name="Layer 1" xmlns="http://www.w3.org/2000/svg" viewBox="0 0 32 32"><defs><style>.cls-1{fill:#2222b5;}</style></defs><title>Thesis-Icons-v2</title><path class="cls-1" d="M16,21.25a.87.87,0,0,1-.62-.26L11,16.63a3.47,3.47,0,0,1,2.5-5.88A3.44,3.44,0,0,1,16,11.82a3.21,3.21,0,0,1,2.43-1.07A3.47,3.47,0,0,1,21,16.57L16.62,21A.87.87,0,0,1,16,21.25Zm-2.47-8.74a1.72,1.72,0,0,0-1.25,2.9L16,19.16l3.67-3.74a1.72,1.72,0,0,0-1.24-2.92,1.71,1.71,0,0,0-1.63,1.19.88.88,0,0,1-1.67,0A1.72,1.72,0,0,0,13.53,12.51Z"/><path class="cls-1" d="M18.47,10.8A3.42,3.42,0,0,1,21,16.54l0,.05L16.58,21a.83.83,0,0,1-.58.24h0a.83.83,0,0,1-.58-.24L11.06,16.6A3.42,3.42,0,0,1,16,11.85a3.41,3.41,0,0,1,2.47-1.05M16,14.26a.83.83,0,0,1-.79-.57,1.77,1.77,0,1,0-3,1.76L16,19.2l3.74-3.74h0a1.77,1.77,0,1,0-3-1.76.83.83,0,0,1-.79.57m2.47-3.55a3.54,3.54,0,0,0-2.47,1,3.52,3.52,0,0,0-5,5L15.34,21a.93.93,0,0,0,1.31,0L21,16.67l.06-.06a3.52,3.52,0,0,0-2.6-5.9ZM16,14.36a.92.92,0,0,0,.88-.64,1.67,1.67,0,1,1,2.8,1.66L16,19.06l-3.68-3.69a1.67,1.67,0,1,1,2.8-1.66.92.92,0,0,0,.88.64Z"/><path class="cls-1" d="M21.5,3a1,1,0,0,1,1,1V9.5H28a1,1,0,0,1,1,1v11a1,1,0,0,1-1,1H22.5V28a1,1,0,0,1-1,1h-11a1,1,0,0,1-1-1V22.5H4a1,1,0,0,1-1-1v-11a1,1,0,0,1,1-1H9.5V4a1,1,0,0,1,1-1h11m0-2h-11a3,3,0,0,0-3,3V7.5H4a3,3,0,0,0-3,3v11a3,3,0,0,0,3,3H7.5V28a3,3,0,0,0,3,3h11a3,3,0,0,0,3-3V24.5H28a3,3,0,0,0,3-3v-11a3,3,0,0,0-3-3H24.5V4a3,3,0,0,0-3-3Z"/></svg>