<svg id="Layer_1" data-name="Layer 1" xmlns="http://www.w3.org/2000/svg" viewBox="0 0 32 32"><defs><style>.cls-1{fill:#2222b5;}</style></defs><title>Thesis-Icons-v2</title><path class="cls-1" d="M21.72,15.09a1,1,0,0,1-1-1,2.85,2.85,0,0,0-2.85-2.85,1,1,0,1,1,0-2,4.88,4.88,0,0,1,4.87,4.87A1,1,0,0,1,21.72,15.09Z"/><path class="cls-1" d="M25.58,15.09a1,1,0,0,1-1-1,6.71,6.71,0,0,0-6.7-6.7,1,1,0,0,1,0-2,8.74,8.74,0,0,1,8.73,8.73A1,1,0,0,1,25.58,15.09Z"/><path class="cls-1" d="M29.44,15.09a1,1,0,0,1-1-1A10.57,10.57,0,0,0,17.87,3.51a1,1,0,0,1,0-2A12.6,12.6,0,0,1,30.46,14.08,1,1,0,0,1,29.44,15.09Z"/><path class="cls-1" d="M10.28,16.91a1,1,0,0,1,1,1,2.85,2.85,0,0,0,2.85,2.85,1,1,0,1,1,0,2,4.88,4.88,0,0,1-4.87-4.87A1,1,0,0,1,10.28,16.91Z"/><path class="cls-1" d="M6.42,16.91a1,1,0,0,1,1,1,6.71,6.71,0,0,0,6.7,6.7,1,1,0,0,1,0,2A8.74,8.74,0,0,1,5.4,17.92,1,1,0,0,1,6.42,16.91Z"/><path class="cls-1" d="M2.56,16.91a1,1,0,0,1,1,1A10.57,10.57,0,0,0,14.13,28.49a1,1,0,0,1,0,2A12.6,12.6,0,0,1,1.54,17.92,1,1,0,0,1,2.56,16.91Z"/><circle class="cls-1" cx="15.77" cy="15.88" r="2.38"/></svg>