<svg id="Layer_1" data-name="Layer 1" xmlns="http://www.w3.org/2000/svg" viewBox="0 0 200 200"><defs><style>.cls-1{fill:#fff;}</style></defs><title>ITP_logo_2014_onecolor-tisch</title><polygon class="cls-1" points="27.61 48 44.71 48 44.55 120.7 27.45 120.7 27.61 48"/><path class="cls-1" d="M83.83,121.38a24.05,24.05,0,0,1-7.18-1,12.35,12.35,0,0,1-5.54-3.55,17.59,17.59,0,0,1-3.62-6.63,34.81,34.81,0,0,1-1.3-10.38v-34H58.94V48.36h7.24V30h17.2V48.36H97.63V65.77H83.38V96.56q0,7,5.54,7a14.85,14.85,0,0,0,8.49-2.68v16.35a24.76,24.76,0,0,1-6,3,23.16,23.16,0,0,1-7.58,1.14"/><path class="cls-1" d="M112.6,48.84h16.82v8a26.07,26.07,0,0,1,7.47-6.47,21.69,21.69,0,0,1,11-2.54A27.93,27.93,0,0,1,158,49.67a25.06,25.06,0,0,1,8.63,5.54,27.43,27.43,0,0,1,6,9,31.12,31.12,0,0,1,2.27,12.27v.21A31.12,31.12,0,0,1,172.63,89a27.89,27.89,0,0,1-6,9,24.51,24.51,0,0,1-8.58,5.54,28.23,28.23,0,0,1-10.18,1.87,22.28,22.28,0,0,1-11.12-2.49,29.25,29.25,0,0,1-7.36-5.8v23.81H112.6Zm31,43.18a14.34,14.34,0,0,0,5.59-1.09,13.93,13.93,0,0,0,4.59-3.11A14.9,14.9,0,0,0,156.92,83a16.3,16.3,0,0,0,1.16-6.32v-.21a16.41,16.41,0,0,0-1.16-6.26,14.77,14.77,0,0,0-3.15-4.87,14,14,0,0,0-4.59-3.11,14.91,14.91,0,0,0-11.18,0,13.34,13.34,0,0,0-4.54,3.11,15.24,15.24,0,0,0-3.1,4.87,16.4,16.4,0,0,0-1.16,6.26v.21A16.39,16.39,0,0,0,130.37,83a15.23,15.23,0,0,0,3.1,4.87A13.32,13.32,0,0,0,138,90.93,14.33,14.33,0,0,0,143.59,92"/><path class="cls-1" d="M27.94,133.35v16.7h16.7v-16.7ZM38.25,137s0,0,0,0a3.07,3.07,0,0,1,.34,2c-.17.44-2.06.5-2.54,2.81a0,0,0,0,1,0,0,2.9,2.9,0,0,1,1.23-3.51A4.13,4.13,0,0,0,38.25,137Zm-1.67-1s0,0,0,0a5.15,5.15,0,0,1,.52,2s0,.09,0,.13c-.33.31-2.38,1.72-1.36,3.9,0,0,0,0,0,0-1.65-1.08-2-2.22-.43-4.1A6.7,6.7,0,0,0,36.58,136Zm-3.43,3.19a5.89,5.89,0,0,0,.85-1.87s0,0,.06,0a4,4,0,0,1,.42,1.07.16.16,0,0,1,0,.1,2.3,2.3,0,0,0,.83,3.55s0,0,0,0C32.61,142,32.61,140.08,33.15,139.19ZM36,148.1a.18.18,0,0,1-.33,0l-.5-4.63h1.42Zm1.08-5H34.71v-.7h2.41Zm-.7-1a0,0,0,0,1,0,0,2.88,2.88,0,0,1,1.68-2.24,2.91,2.91,0,0,0,1.59-1.47s0,0,0,0C39.69,139.42,39.48,142.21,36.42,142.1Z"/><polygon class="cls-1" points="115.56 137.01 111.11 137.01 111.11 134.04 123.23 134.04 123.23 137.01 118.78 137.01 118.78 148.67 115.56 148.67 115.56 137.01"/><rect class="cls-1" x="125.42" y="134.04" width="3.22" height="14.63"/><path class="cls-1" d="M130.88,146.54l1.9-2.28a6.71,6.71,0,0,0,4.37,1.78c1.32,0,2.11-.52,2.11-1.38v0c0-.81-.5-1.23-2.94-1.86-2.95-.75-4.85-1.57-4.85-4.47v0c0-2.65,2.13-4.41,5.12-4.41a8.47,8.47,0,0,1,5.43,1.86l-1.67,2.42a6.86,6.86,0,0,0-3.8-1.44c-1.23,0-1.88.56-1.88,1.27v0c0,1,.63,1.27,3.15,1.92,3,.77,4.64,1.84,4.64,4.39v0c0,2.9-2.21,4.53-5.37,4.53a9.3,9.3,0,0,1-6.2-2.34"/><path class="cls-1" d="M144.19,141.4v0a7.43,7.43,0,0,1,7.63-7.56,7.54,7.54,0,0,1,5.77,2.26l-2,2.36a5.4,5.4,0,0,0-3.74-1.65,4.33,4.33,0,0,0-4.24,4.55v0a4.34,4.34,0,0,0,4.24,4.6,5.29,5.29,0,0,0,3.84-1.71l2,2.07a7.48,7.48,0,0,1-6,2.61,7.38,7.38,0,0,1-7.5-7.52"/><polygon class="cls-1" points="159.84 134.04 163.06 134.04 163.06 139.83 169 139.83 169 134.04 172.21 134.04 172.21 148.67 169 148.67 169 142.8 163.06 142.8 163.06 148.67 159.84 148.67 159.84 134.04"/><rect class="cls-1" x="104.81" y="128.37" width="0.57" height="26.95"/><polygon class="cls-1" points="54.58 133.87 57.57 133.87 64.47 142.94 64.47 133.87 67.67 133.87 67.67 148.61 64.91 148.61 57.78 139.24 57.78 148.61 54.58 148.61 54.58 133.87"/><polygon class="cls-1" points="74.95 142.8 69.29 133.87 73.08 133.87 76.6 139.79 80.17 133.87 83.86 133.87 78.19 142.74 78.19 148.61 74.95 148.61 74.95 142.8"/><path class="cls-1" d="M85.24,142.29v-8.42h3.24v8.34c0,2.4,1.2,3.64,3.18,3.64s3.18-1.2,3.18-3.54v-8.44h3.24v8.32c0,4.46-2.5,6.65-6.46,6.65s-6.38-2.21-6.38-6.55"/></svg>