<?xml version="1.0" encoding="utf-8"?>
<!-- Generator: Adobe Illustrator 21.0.2, SVG Export Plug-In . SVG Version: 6.00 Build 0)  -->
<svg version="1.1" id="Layer_1" xmlns="http://www.w3.org/2000/svg" xmlns:xlink="http://www.w3.org/1999/xlink" x="0px" y="0px"
	 viewBox="0 0 269.6 230.2" style="enable-background:new 0 0 269.6 230.2;" xml:space="preserve">
<style type="text/css">
	.st0{fill:#FFFFFF;}
</style>
<title>LOGO</title>
<desc>Created with Sketch.</desc>
<g>
	<polygon class="st0" points="0.3,33.4 31.2,33.4 30.9,164.9 0,164.9 	"/>
	<path class="st0" d="M102,166.2c-4.4,0.1-8.8-0.6-13-1.8c-3.9-1.2-7.3-3.4-10-6.4c-3-3.5-5.3-7.6-6.6-12
		c-1.7-6.1-2.5-12.4-2.4-18.8V65.6H57V34h13.1V0.8h31.1V34H127v31.5h-25.8v55.7c0,8.4,3.3,12.7,10,12.7c5.5,0,10.9-1.7,15.4-4.9
		v29.6c-3.4,2.3-7,4.1-10.9,5.4C111.3,165.5,106.7,166.2,102,166.2"/>
	<path class="st0" d="M154.1,34.9h30.4v14.5c3.7-4.7,8.3-8.7,13.5-11.7c6.1-3.3,13-4.8,19.9-4.6c6.3,0,12.5,1.1,18.3,3.3
		c5.8,2.2,11.2,5.6,15.6,10c4.7,4.7,8.4,10.2,10.9,16.3c2.9,7,4.3,14.6,4.1,22.2v0.4c0.2,7.6-1.2,15.2-4.1,22.3
		c-2.5,6.1-6.2,11.6-10.9,16.3c-4.4,4.4-9.7,7.8-15.5,10c-5.9,2.3-12.1,3.4-18.4,3.4c-7,0.3-13.9-1.3-20.1-4.5
		c-5-2.8-9.5-6.3-13.3-10.5v43.1h-30.4V34.9z M210.2,113c3.5,0,6.9-0.6,10.1-2c3.1-1.3,5.9-3.2,8.3-5.6c2.4-2.5,4.4-5.5,5.7-8.7
		c1.5-3.6,2.2-7.5,2.1-11.4v-0.4c0-3.9-0.7-7.7-2.1-11.3c-1.3-3.3-3.2-6.3-5.7-8.8c-2.4-2.4-5.2-4.3-8.3-5.6
		c-6.5-2.6-13.7-2.6-20.2,0c-3.1,1.3-5.9,3.2-8.2,5.6c-2.4,2.6-4.3,5.5-5.6,8.8c-1.4,3.6-2.1,7.5-2.1,11.3v0.4
		c-0.1,3.9,0.7,7.8,2.1,11.4c1.3,3.3,3.2,6.3,5.6,8.8c2.3,2.4,5.1,4.3,8.2,5.5C203.3,112.4,206.7,113,210.2,113"/>
	<path class="st0" d="M0.9,187.8v30.2h30.2v-30.2H0.9z M19.5,194.4L19.5,194.4c0.6,1.1,0.8,2.4,0.6,3.6c-0.3,0.8-3.7,0.9-4.6,5.1
		l0,0c-0.9-2.4,0-5.1,2.2-6.4C18.5,196.1,19.1,195.3,19.5,194.4z M16.5,192.6L16.5,192.6c0.6,1.1,0.9,2.4,0.9,3.6c0,0,0,0.2,0,0.2
		c-0.6,0.6-4.3,3.1-2.5,7.1l0,0c-3-2-3.6-4-0.8-7.4C15.2,195.1,16,193.9,16.5,192.6z M10.3,198.4c0.7-1,1.2-2.2,1.5-3.4
		c0,0,0,0,0.1,0c0.3,0.6,0.6,1.3,0.8,1.9c0,0.1,0,0.1,0,0.2c-1.5,1.8-1.2,4.4,0.6,5.9c0.3,0.2,0.6,0.4,0.9,0.6l0,0
		C9.3,203.5,9.3,200,10.3,198.4z M15.5,214.5c-0.1,0.2-0.3,0.2-0.4,0.2c-0.1,0-0.1-0.1-0.2-0.2l-0.9-8.4h2.6L15.5,214.5z
		 M17.4,205.5h-4.3v-1.3h4.4L17.4,205.5z M16.2,203.7L16.2,203.7c0.2-1.8,1.4-3.3,3-4.1c1.3-0.5,2.3-1.4,2.9-2.7l0,0
		C22.2,198.8,21.8,203.9,16.2,203.7L16.2,203.7z"/>
	<polygon class="st0" points="159.5,194.5 151.4,194.5 151.4,189.1 173.3,189.1 173.3,194.5 165.3,194.5 165.3,215.6 159.5,215.6 	
		"/>
	<rect x="177.3" y="189.1" class="st0" width="5.8" height="26.5"/>
	<path class="st0" d="M187.2,211.7l3.4-4.1c2.2,2,5,3.1,7.9,3.2c2.4,0,3.8-0.9,3.8-2.5l0,0c0-1.5-0.9-2.2-5.3-3.4
		c-5.3-1.4-8.8-2.8-8.8-8.1l0,0c0-4.8,3.9-8,9.3-8c3.6-0.1,7,1.1,9.8,3.4l-3,4.4c-2-1.5-4.4-2.5-6.9-2.6c-2.2,0-3.4,1-3.4,2.3l0,0
		c0,1.8,1.1,2.3,5.7,3.5c5.4,1.4,8.4,3.3,8.4,7.9l0,0c0,5.2-4,8.2-9.7,8.2C194.3,215.9,190.3,214.4,187.2,211.7"/>
	<path class="st0" d="M211.3,202.4L211.3,202.4c-0.1-7.4,5.8-13.6,13.2-13.7c0.2,0,0.4,0,0.6,0c3.9-0.2,7.7,1.3,10.4,4.1l-3.6,4.3
		c-1.8-1.8-4.2-2.9-6.8-3c-4.3,0.1-7.8,3.7-7.7,8c0,0.1,0,0.2,0,0.2l0,0c-0.3,4.3,3,8.1,7.4,8.3c0.1,0,0.2,0,0.3,0
		c2.6,0,5.2-1.1,6.9-3.1l3.6,3.7c-2.7,3.2-6.7,4.9-10.9,4.7c-7.4,0.1-13.5-5.8-13.6-13.1C211.3,202.7,211.3,202.6,211.3,202.4"/>
	<polygon class="st0" points="239.6,189.1 245.4,189.1 245.4,199.6 256.2,199.6 256.2,189.1 262,189.1 262,215.6 256.2,215.6 
		256.2,204.9 245.4,204.9 245.4,215.6 239.6,215.6 	"/>
	<rect x="140" y="178.8" class="st0" width="1" height="48.8"/>
	<polygon class="st0" points="49.1,188.8 54.5,188.8 67,205.2 67,188.8 72.8,188.8 72.8,215.5 67.8,215.5 54.9,198.5 54.9,215.5 
		49.1,215.5 	"/>
	<polygon class="st0" points="86,204.9 75.7,188.8 82.6,188.8 88.9,199.5 95.4,188.8 102.1,188.8 91.8,204.8 91.8,215.5 86,215.5 	
		"/>
	<path class="st0" d="M104.6,204v-15.2h5.9v15.1c0,4.3,2.2,6.6,5.8,6.6c3.6,0,5.8-2.2,5.8-6.4v-15.3h5.9v15.1c0,8.1-4.5,12-11.7,12
		C109,215.9,104.6,211.9,104.6,204"/>
</g>
</svg>
