<?xml version="1.0" encoding="utf-8"?>
<!-- Generator: Adobe Illustrator 17.0.0, SVG Export Plug-In . SVG Version: 6.00 Build 0)  -->
<!DOCTYPE svg PUBLIC "-//W3C//DTD SVG 1.1//EN" "http://www.w3.org/Graphics/SVG/1.1/DTD/svg11.dtd">
<svg version="1.1" id="Layer_1" xmlns="http://www.w3.org/2000/svg" xmlns:xlink="http://www.w3.org/1999/xlink" x="0px" y="0px"
     width="269.644px" height="241.343px" viewBox="0 0 269.644 241.343" enable-background="new 0 0 269.644 241.343"
     xml:space="preserve">
<g>
    <polygon id="path-1" fill="#FFFFFF" points="0,32.713 0,163.878 31.535,163.878 31.535,32.713     "/>
</g>
<title>LOGO</title>
<desc>Created with Sketch.</desc>
<g id="_x30_1C-FilteredContent" transform="translate(-28.000000, -18.000000)">
    <g id="LOGO" transform="translate(-11.000000, 18.000000)">
        <g id="ITP" transform="translate(39.000000, 0.000000)">
            <g id="Group-3" transform="translate(0.000000, 6.857813)">
                <g id="Clip-2">
                </g>
                <polyline id="Fill-1" fill="#FFFFFF" points="0.457,25.855 31.535,25.855 31.078,157.021 0,157.021 0.457,25.855               "/>
            </g>
            <path id="Fill-4" fill="#FFFFFF" d="M102.83,165.442c-5.027,0-9.141-0.457-13.254-1.828c-4.113-1.371-7.312-3.199-10.054-6.398
                c-2.742-3.199-5.027-6.855-6.398-11.883c-1.371-5.027-2.285-10.969-2.285-18.738V64.897H57.585V33.363h13.254V0h31.535v33.363
                h25.593v31.535h-26.05v55.757c0,8.226,3.199,12.797,10.054,12.797c5.484,0,10.511-1.828,15.539-5.027v29.706
                c-3.199,2.285-6.855,4.113-10.969,5.484C112.428,164.528,107.857,165.442,102.83,165.442"/>
            <path id="Fill-5" fill="#FFFFFF" d="M211.602,111.971c3.656,0,6.855-0.457,10.054-1.828c3.199-1.371,5.941-3.199,8.226-5.484
                c2.285-2.285,4.113-5.484,5.941-8.683c1.371-3.199,2.285-7.312,2.285-11.426v-0.457c0-4.113-0.914-7.769-2.285-11.426
                c-1.371-3.656-3.199-6.398-5.941-8.683c-2.285-2.285-5.027-4.113-8.226-5.484c-3.199-1.371-6.398-1.828-10.054-1.828
                s-6.855,0.457-10.054,1.828c-3.199,1.371-5.941,3.199-8.226,5.484s-4.113,5.484-5.484,8.683
                c-1.371,3.656-2.285,7.312-2.285,11.426v0.457c0,4.113,0.914,7.769,2.285,11.426c1.371,3.656,3.199,6.398,5.484,8.683
                c2.285,2.285,5.027,4.113,8.226,5.484C204.289,111.514,207.945,111.971,211.602,111.971 M154.931,34.277h30.621v14.625
                c3.656-4.57,8.226-8.683,13.711-11.883c5.484-3.199,11.883-4.57,20.109-4.57c6.398,0,12.34,0.914,18.281,3.199
                s10.969,5.484,15.539,10.054c4.57,4.57,8.226,10.054,10.969,16.453c2.742,6.398,4.113,13.711,4.113,22.394v0.457
                c0,8.226-1.371,15.539-4.113,22.394c-2.742,6.398-6.398,11.883-10.969,16.453c-4.57,4.57-9.598,7.769-15.539,10.054
                c-5.941,2.285-11.883,3.199-18.738,3.199c-8.226,0-15.082-1.371-20.109-4.57c-5.484-3.199-9.597-6.398-13.254-10.511v42.503
                h-30.621L154.931,34.277"/>
        </g>
    </g>
</g>
<g enable-background="new    ">
    <path fill="#FFFFFF" d="M0,209.317h24.222v5.941h-8.683v25.593H8.683v-25.593H0V209.317z"/>
    <path fill="#FFFFFF" d="M55.3,209.317v31.992h-6.855v-12.797H37.019v12.797h-6.855v-31.992h6.855v12.797h11.426v-12.797H55.3z"/>
    <path fill="#FFFFFF" d="M63.526,209.317h20.109v5.941H70.381v7.312h11.883v5.941H70.381v6.855h13.711v5.941H63.526V209.317z"/>
    <path fill="#FFFFFF" d="M95.975,231.711c0,1.828,1.828,3.656,4.57,3.656s4.57-1.371,4.57-3.199c0-1.371-0.457-2.742-3.656-3.656
        l-3.656-0.914c-6.855-2.285-8.226-6.398-8.226-9.141c0-5.484,5.027-9.598,10.969-9.598c5.941,0,10.969,3.656,10.969,9.598h-6.855
        c0-2.285-1.371-3.656-4.113-3.656c-2.285,0-4.113,1.371-4.113,3.199c0,0.914,0.457,2.285,3.199,3.199l3.656,1.371
        c7.769,2.285,8.683,6.398,8.683,9.597c0,6.398-5.941,9.141-11.426,9.141c-6.855,0-11.426-4.113-11.426-10.054h6.855L95.975,231.711
        L95.975,231.711z"/>
    <path fill="#FFFFFF" d="M125.681,209.317v31.992h-6.855v-31.992H125.681z"/>
    <path fill="#FFFFFF" d="M139.392,231.711c0,1.828,1.828,3.656,4.57,3.656c2.742,0,4.57-1.371,4.57-3.199
        c0-1.371-0.457-2.742-3.656-3.656l-3.656-0.914c-6.855-2.285-8.226-6.398-8.226-9.141c0-5.484,5.027-9.598,10.969-9.598
        s10.969,3.656,10.969,9.598h-6.855c0-2.285-1.371-3.656-4.113-3.656c-2.285,0-4.113,1.371-4.113,3.199
        c0,0.914,0.457,2.285,3.199,3.199l3.656,1.371c7.769,2.285,8.683,6.398,8.683,9.597c0,6.398-5.941,9.141-11.426,9.141
        c-6.855,0.457-11.426-3.656-11.426-9.597H139.392z"/>
    <path fill="#FFFFFF" d="M173.212,240.851v-3.199l12.34-14.625c0.914-0.914,1.828-2.285,1.828-3.199
        c0-1.828-1.371-3.199-3.656-3.199s-4.113,1.828-4.113,4.113l-6.398-1.371c0.914-5.941,5.027-9.597,10.511-9.597
        c5.484,0,10.054,3.656,10.054,9.141c0,2.742-1.371,5.484-3.199,7.769l-6.855,7.769h9.141v5.941h-19.652L173.212,240.851
        L173.212,240.851z"/>
    <path fill="#FFFFFF" d="M211.145,210.23c8.683,0,11.426,6.855,11.426,15.539c0,8.683-2.285,15.539-11.426,15.539
        c-8.683,0-11.426-6.855-11.426-15.539C200.176,217.086,202.461,210.23,211.145,210.23z M211.145,235.367
        c3.656,0,4.57-4.113,4.57-9.141c0-5.027-0.914-9.598-4.57-9.598c-3.656,0-5.027,4.113-5.027,9.598
        C206.574,230.797,207.488,235.367,211.145,235.367z"/>
    <path fill="#FFFFFF" d="M239.937,240.851h-6.855v-21.48l-5.027,2.285v-5.484l11.426-5.484v30.163L239.937,240.851L239.937,240.851z
        "/>
    <path fill="#FFFFFF" d="M269.644,210.688l-13.254,30.163h-7.312l10.511-24.222h-12.797v-5.941H269.644z"/>
</g>
</svg>
