<?xml version="1.0" encoding="utf-8"?>
<!-- Generator: Adobe Illustrator 17.0.0, SVG Export Plug-In . SVG Version: 6.00 Build 0)  -->
<!DOCTYPE svg PUBLIC "-//W3C//DTD SVG 1.1//EN" "http://www.w3.org/Graphics/SVG/1.1/DTD/svg11.dtd">
<svg version="1.1" id="Layer_1" xmlns="http://www.w3.org/2000/svg" xmlns:xlink="http://www.w3.org/1999/xlink" x="0px" y="0px"
     width="1701.49px" height="1522.689px" viewBox="0 0 1701.49 1522.689" enable-background="new 0 0 1701.49 1522.689"
     xml:space="preserve">
<g>
    <polygon id="path-1" fill="#FFFFFF" points="0,206.423 0,1034.097 198.988,1034.097 198.988,206.423   "/>
</g>
<title>LOGO</title>
<desc>Created with Sketch.</desc>
<g id="_x30_1C-FilteredContent" transform="translate(-28.000000, -18.000000)">
    <g id="LOGO" transform="translate(-11.000000, 18.000000)">
        <g id="ITP" transform="translate(39.000000, 0.000000)">
            <g id="Group-3" transform="translate(0.000000, 6.857813)">
                <g id="Clip-2">
                </g>
                <polyline id="Fill-1" fill="#FFFFFF" points="2.884,199.565 198.988,199.565 196.104,1027.239 0,1027.239 2.884,199.565                "/>
            </g>
            <path id="Fill-4" fill="#FFFFFF" d="M648.873,1043.965c-31.723,0-57.678-2.884-83.633-11.536
                c-25.955-8.652-46.142-20.187-63.445-40.374s-31.723-43.258-40.374-74.981s-14.419-69.213-14.419-118.239V409.511h-83.633
                V210.523h83.633V0h198.988v210.523h161.497v198.988H643.106v351.834c0,51.91,20.187,80.749,63.445,80.749
                c34.607,0,66.329-11.535,98.052-31.723v187.452c-20.187,14.419-43.258,25.955-69.213,34.607
                C709.435,1038.197,680.596,1043.965,648.873,1043.965"/>
            <path id="Fill-5" fill="#FFFFFF" d="M1335.237,706.551c23.071,0,43.258-2.884,63.445-11.536
                c20.187-8.652,37.49-20.187,51.91-34.607c14.419-14.419,25.955-34.607,37.49-54.794c8.652-20.187,14.419-46.142,14.419-72.097
                v-2.884c0-25.955-5.768-49.026-14.419-72.097s-20.187-40.374-37.49-54.794c-14.419-14.419-31.723-25.955-51.91-34.607
                c-20.187-8.652-40.374-11.536-63.445-11.536s-43.258,2.884-63.445,11.536c-20.187,8.652-37.49,20.187-51.91,34.607
                s-25.955,34.607-34.607,54.794c-8.652,23.071-14.419,46.142-14.419,72.097v2.884c0,25.955,5.768,49.026,14.419,72.097
                s20.187,40.374,34.607,54.794c14.419,14.419,31.723,25.955,51.91,34.607C1289.095,703.667,1312.166,706.551,1335.237,706.551
                 M977.636,216.291h193.22v92.284c23.071-28.839,51.91-54.794,86.516-74.981c34.607-20.187,74.981-28.839,126.891-28.839
                c40.374,0,77.865,5.768,115.355,20.187c37.49,14.419,69.213,34.607,98.052,63.445c28.839,28.839,51.91,63.445,69.213,103.82
                c17.303,40.374,25.955,86.516,25.955,141.31v2.884c0,51.91-8.652,98.052-25.955,141.31
                c-17.303,40.374-40.374,74.981-69.213,103.82c-28.839,28.839-60.562,49.026-98.052,63.445
                c-37.49,14.419-74.981,20.187-118.239,20.187c-51.91,0-95.168-8.652-126.891-28.839c-34.607-20.187-60.561-40.374-83.633-66.329
                v268.201h-193.22V216.291"/>
        </g>
    </g>
</g>
<g enable-background="new    ">
    <path fill="#FFFFFF" d="M0,1320.818h152.846v37.49H98.052v161.497H54.794v-161.497H0V1320.818z"/>
    <path fill="#FFFFFF" d="M348.95,1320.818v201.872h-43.258v-80.749h-72.097v80.749h-43.258v-201.872h43.258v80.749h72.097v-80.749
        H348.95z"/>
    <path fill="#FFFFFF" d="M400.859,1320.818H527.75v37.49h-83.633v46.142h74.981v37.49h-74.981v43.258h86.516v37.49H400.859V1320.818
        z"/>
    <path fill="#FFFFFF" d="M605.615,1462.128c0,11.536,11.536,23.071,28.839,23.071s28.839-8.652,28.839-20.187
        c0-8.652-2.884-17.303-23.071-23.071l-23.071-5.768c-43.258-14.419-51.91-40.374-51.91-57.678
        c0-34.607,31.723-60.562,69.213-60.562s69.213,23.071,69.213,60.562h-43.258c0-14.419-8.652-23.071-25.955-23.071
        c-14.419,0-25.955,8.652-25.955,20.187c0,5.768,2.884,14.419,20.187,20.187l23.071,8.652
        c49.026,14.419,54.794,40.374,54.794,60.561c0,40.374-37.49,57.678-72.097,57.678c-43.258,0-72.097-25.955-72.097-63.445h43.258
        V1462.128z"/>
    <path fill="#FFFFFF" d="M793.067,1320.818v201.872h-43.258v-201.872H793.067z"/>
    <path fill="#FFFFFF" d="M879.584,1462.128c0,11.536,11.536,23.071,28.839,23.071c17.303,0,28.839-8.652,28.839-20.187
        c0-8.652-2.884-17.303-23.071-23.071l-23.071-5.768c-43.258-14.419-51.91-40.374-51.91-57.678
        c0-34.607,31.723-60.562,69.213-60.562s69.213,23.071,69.213,60.562h-43.258c0-14.419-8.652-23.071-25.955-23.071
        c-14.419,0-25.955,8.652-25.955,20.187c0,5.768,2.884,14.419,20.187,20.187l23.071,8.652
        c49.026,14.419,54.794,40.374,54.794,60.561c0,40.374-37.49,57.678-72.097,57.678c-43.258,2.884-72.097-23.071-72.097-60.561
        H879.584z"/>
    <path fill="#FFFFFF" d="M1092.991,1519.806v-20.187l77.865-92.284c5.768-5.768,11.536-14.419,11.536-20.187
        c0-11.536-8.652-20.187-23.071-20.187c-14.419,0-25.955,11.536-25.955,25.955l-40.374-8.652
        c5.768-37.49,31.723-60.561,66.329-60.561c34.607,0,63.445,23.071,63.445,57.678c0,17.303-8.652,34.607-20.187,49.026
        l-43.258,49.026h57.678v37.49h-124.007V1519.806z"/>
    <path fill="#FFFFFF" d="M1332.353,1326.585c54.794,0,72.097,43.258,72.097,98.052c0,54.794-14.419,98.052-72.097,98.052
        c-54.794,0-72.097-43.258-72.097-98.052C1263.14,1369.844,1277.559,1326.585,1332.353,1326.585z M1332.353,1485.199
        c23.071,0,28.839-25.955,28.839-57.678s-5.768-60.562-28.839-60.562s-31.723,25.955-31.723,60.562
        C1303.514,1456.36,1309.282,1485.199,1332.353,1485.199z"/>
    <path fill="#FFFFFF" d="M1514.038,1519.806h-43.258v-135.542l-31.723,14.419v-34.607l72.097-34.607v190.336H1514.038z"/>
    <path fill="#FFFFFF" d="M1701.49,1329.469l-83.633,190.336h-46.142l66.329-152.846h-80.749v-37.49H1701.49z"/>
</g>
</svg>
