<?xml version="1.0" encoding="utf-8"?>
<!-- Generator: Adobe Illustrator 21.0.2, SVG Export Plug-In . SVG Version: 6.00 Build 0)  -->
<svg version="1.1" id="Layer_1" xmlns="http://www.w3.org/2000/svg" xmlns:xlink="http://www.w3.org/1999/xlink" x="0px" y="0px"
	 viewBox="0 0 269.6 241.3" style="enable-background:new 0 0 269.6 241.3;" xml:space="preserve">
<style type="text/css">
	.st0{fill:#292755;}
	.st1{enable-background:new    ;}
</style>
<g>
	<polygon id="path-1" class="st0" points="0,32.7 0,163.9 31.5,163.9 31.5,32.7 	"/>
</g>
<title>LOGO</title>
<desc>Created with Sketch.</desc>
<g id="_x30_1C-FilteredContent" transform="translate(-28.000000, -18.000000)">
	<g id="LOGO" transform="translate(-11.000000, 18.000000)">
		<g id="ITP" transform="translate(39.000000, 0.000000)">
			<g id="Group-3" transform="translate(0.000000, 6.857813)">
				<g id="Clip-2">
				</g>
				<polyline id="Fill-1" class="st0" points="0.5,25.9 31.5,25.9 31.1,157 0,157 0.5,25.9 				"/>
			</g>
			<path id="Fill-4" class="st0" d="M102.8,165.4c-5,0-9.1-0.5-13.3-1.8s-7.3-3.2-10.1-6.4c-2.7-3.2-5-6.9-6.4-11.9
				c-1.4-5-2.3-11-2.3-18.7V64.9H57.6V33.4h13.3V0h31.5v33.4H128v31.5h-26.1v55.8c0,8.2,3.2,12.8,10.1,12.8c5.5,0,10.5-1.8,15.5-5
				v29.7c-3.2,2.3-6.9,4.1-11,5.5C112.4,164.5,107.9,165.4,102.8,165.4"/>
			<path id="Fill-5" class="st0" d="M211.6,112c3.7,0,6.9-0.5,10.1-1.8s5.9-3.2,8.2-5.5s4.1-5.5,5.9-8.7c1.4-3.2,2.3-7.3,2.3-11.4
				v-0.5c0-4.1-0.9-7.8-2.3-11.4c-1.4-3.7-3.2-6.4-5.9-8.7c-2.3-2.3-5-4.1-8.2-5.5c-3.2-1.4-6.4-1.8-10.1-1.8s-6.9,0.5-10.1,1.8
				s-5.9,3.2-8.2,5.5c-2.3,2.3-4.1,5.5-5.5,8.7c-1.4,3.7-2.3,7.3-2.3,11.4v0.5c0,4.1,0.9,7.8,2.3,11.4c1.4,3.7,3.2,6.4,5.5,8.7
				c2.3,2.3,5,4.1,8.2,5.5C204.3,111.5,207.9,112,211.6,112 M154.9,34.3h30.6v14.6c3.7-4.6,8.2-8.7,13.7-11.9
				c5.5-3.2,11.9-4.6,20.1-4.6c6.4,0,12.3,0.9,18.3,3.2s11,5.5,15.5,10.1c4.6,4.6,8.2,10.1,11,16.5c2.7,6.4,4.1,13.7,4.1,22.4V85
				c0,8.2-1.4,15.5-4.1,22.4c-2.7,6.4-6.4,11.9-11,16.5c-4.6,4.6-9.6,7.8-15.5,10.1c-5.9,2.3-11.9,3.2-18.7,3.2
				c-8.2,0-15.1-1.4-20.1-4.6c-5.5-3.2-9.6-6.4-13.3-10.5v42.5h-30.6L154.9,34.3"/>
		</g>
	</g>
</g>
<g class="st1">
	<path class="st0" d="M0,209.3h24.2v5.9h-8.7v25.6H8.7v-25.6H0V209.3z"/>
	<path class="st0" d="M55.3,209.3v32h-6.9v-12.8H37v12.8h-6.9v-32H37v12.8h11.4v-12.8H55.3z"/>
	<path class="st0" d="M63.5,209.3h20.1v5.9H70.4v7.3h11.9v5.9H70.4v6.9h13.7v5.9H63.5V209.3z"/>
	<path class="st0" d="M96,231.7c0,1.8,1.8,3.7,4.6,3.7s4.6-1.4,4.6-3.2c0-1.4-0.5-2.7-3.7-3.7l-3.7-0.9c-6.9-2.3-8.2-6.4-8.2-9.1
		c0-5.5,5-9.6,11-9.6c5.9,0,11,3.7,11,9.6h-6.9c0-2.3-1.4-3.7-4.1-3.7c-2.3,0-4.1,1.4-4.1,3.2c0,0.9,0.5,2.3,3.2,3.2l3.7,1.4
		c7.8,2.3,8.7,6.4,8.7,9.6c0,6.4-5.9,9.1-11.4,9.1c-6.9,0-11.4-4.1-11.4-10.1H96V231.7L96,231.7z"/>
	<path class="st0" d="M125.7,209.3v32h-6.9v-32H125.7z"/>
	<path class="st0" d="M139.4,231.7c0,1.8,1.8,3.7,4.6,3.7s4.6-1.4,4.6-3.2c0-1.4-0.5-2.7-3.7-3.7l-3.7-0.9c-6.9-2.3-8.2-6.4-8.2-9.1
		c0-5.5,5-9.6,11-9.6s11,3.7,11,9.6h-6.9c0-2.3-1.4-3.7-4.1-3.7c-2.3,0-4.1,1.4-4.1,3.2c0,0.9,0.5,2.3,3.2,3.2l3.7,1.4
		c7.8,2.3,8.7,6.4,8.7,9.6c0,6.4-5.9,9.1-11.4,9.1c-6.9,0.5-11.4-3.7-11.4-9.6L139.4,231.7L139.4,231.7z"/>
	<path class="st0" d="M173.2,240.9v-3.2l12.3-14.6c0.9-0.9,1.8-2.3,1.8-3.2c0-1.8-1.4-3.2-3.7-3.2s-4.1,1.8-4.1,4.1l-6.4-1.4
		c0.9-5.9,5-9.6,10.5-9.6c5.5,0,10.1,3.7,10.1,9.1c0,2.7-1.4,5.5-3.2,7.8l-6.9,7.8h9.1v5.9h-19.7L173.2,240.9L173.2,240.9z"/>
	<path class="st0" d="M211.1,210.2c8.7,0,11.4,6.9,11.4,15.5c0,8.7-2.3,15.5-11.4,15.5c-8.7,0-11.4-6.9-11.4-15.5
		C200.2,217.1,202.5,210.2,211.1,210.2z M211.1,235.4c3.7,0,4.6-4.1,4.6-9.1c0-5-0.9-9.6-4.6-9.6s-5,4.1-5,9.6
		C206.6,230.8,207.5,235.4,211.1,235.4z"/>
	<path class="st0" d="M239.9,240.9h-6.9v-21.5l-5,2.3v-5.5l11.4-5.5v30.2L239.9,240.9L239.9,240.9z"/>
	<path class="st0" d="M269.6,210.7l-13.3,30.2h-7.3l10.5-24.2h-12.8v-5.9H269.6z"/>
</g>
</svg>
