<svg id="Layer_1" data-name="Layer 1" xmlns="http://www.w3.org/2000/svg" viewBox="0 0 32 32"><defs><style>.cls-1{fill:#292755;}.cls-2{fill:none;stroke:#292755;stroke-linecap:round;stroke-linejoin:round;stroke-width:2px;}</style></defs><title>Thesis-Icons-v2</title><path class="cls-1" d="M20.75,2a2,2,0,0,1,2,2V28a2,2,0,0,1-2,2h-9.5a2,2,0,0,1-2-2V4a2,2,0,0,1,2-2h9.5m0-2h-9.5a4,4,0,0,0-4,4V28a4,4,0,0,0,4,4h9.5a4,4,0,0,0,4-4V4a4,4,0,0,0-4-4Z"/><line class="cls-2" x1="8.23" y1="5.14" x2="22.39" y2="5.14"/><line class="cls-2" x1="8.23" y1="24.14" x2="22.39" y2="24.14"/><circle class="cls-1" cx="16" cy="27.5" r="1.25"/></svg>