<svg id="Layer_1" data-name="Layer 1" xmlns="http://www.w3.org/2000/svg" viewBox="0 0 32 32"><defs><style>.cls-1{fill:#292755;stroke:#292755;stroke-miterlimit:10;stroke-width:0.8px;}</style></defs><title>Thesis-Icons-v2</title><path class="cls-1" d="M3.23,3.84a.55.55,0,0,0-.5.55V27.61h1.1V4.94H28.17V27.61h1.1V4.38a.55.55,0,0,0-.56-.55H3.23Z"/><path class="cls-1" d="M9.91,4.38V6.11a13.82,13.82,0,0,1-3.49,9.18L5.8,16H3.29v1.1h3l1-1.08A14.93,14.93,0,0,0,11,6.11V4.38Z"/><path class="cls-1" d="M6.56,16.35l-1,.4.58,1.49a19.35,19.35,0,0,1,1.32,7v2.07h1.1V25.26a20.44,20.44,0,0,0-1.39-7.41Z"/><path class="cls-1" d="M21,4.38V6.11A14.93,14.93,0,0,0,24.75,16l1,1.08h3V16H26.2l-.63-.71a13.82,13.82,0,0,1-3.49-9.18V4.38Z"/><path class="cls-1" d="M25.44,16.35l-.59,1.49a20.44,20.44,0,0,0-1.39,7.41v2.07h1.1V25.26a19.35,19.35,0,0,1,1.32-7l.58-1.49Z"/><path class="cls-1" d="M1.08,27.05a.56.56,0,0,0,0,1.11H30.92a.56.56,0,0,0,0-1.11Z"/></svg>