<svg id="Layer_1" data-name="Layer 1" xmlns="http://www.w3.org/2000/svg" viewBox="0 0 32 32"><defs><style>.cls-1,.cls-2{fill:#292755;stroke:#292755;}.cls-1{stroke-miterlimit:10;stroke-width:0.8px;}.cls-2{stroke-linecap:round;stroke-linejoin:round;stroke-width:0.72px;}</style></defs><title>Thesis-Icons-v2</title><path class="cls-1" d="M29.39,21.89A14.63,14.63,0,1,0,1.37,16a14.54,14.54,0,0,0,1.24,5.89l0,.06a14.62,14.62,0,0,0,26.72,0ZM16,2.5A13.51,13.51,0,0,1,28,9.85H4A13.51,13.51,0,0,1,16,2.5ZM3.47,11H28.53a13.46,13.46,0,0,1,0,10.16h-25A13.46,13.46,0,0,1,3.47,11ZM16,29.5A13.51,13.51,0,0,1,4,22.27H28A13.51,13.51,0,0,1,16,29.5Z"/><polygon class="cls-2" points="7.53 13.88 8.22 15.28 9.76 15.5 8.64 16.59 8.9 18.12 7.53 17.39 6.15 18.12 6.42 16.59 5.3 15.5 6.84 15.28 7.53 13.88"/><polygon class="cls-2" points="16 13.88 16.69 15.28 18.23 15.5 17.11 16.59 17.38 18.12 16 17.39 14.63 18.12 14.89 16.59 13.77 15.5 15.31 15.28 16 13.88"/><polygon class="cls-2" points="24.47 13.88 25.16 15.28 26.7 15.5 25.58 16.59 25.85 18.12 24.47 17.39 23.09 18.12 23.36 16.59 22.25 15.5 23.78 15.28 24.47 13.88"/></svg>