<svg id="Layer_1" data-name="Layer 1" xmlns="http://www.w3.org/2000/svg" viewBox="0 0 32 32"><defs><style>.cls-1{fill:#EBFF32;}</style></defs><title>Thesis-Icons-v2</title><path class="cls-1" d="M21.43,17.14l8.41-8.41a.9.9,0,0,0,0-1.28l-5.3-5.3a.9.9,0,0,0-1.28,0l-3,3h0l-3,3h0l-2.38,2.38L8.72,4.42l-.05,0-.08-.06-.09-.06-.07,0-.08,0L4,2.88A.9.9,0,0,0,2.88,4L4.2,8.34a.91.91,0,0,0,.1.22l0,0a.86.86,0,0,0,.09.11l6.14,6.14L8.2,17.23h0l-6,6a.9.9,0,0,0,0,1.28l5.3,5.3a.9.9,0,0,0,1.28,0l8.41-8.41,7.76,7.76a.9.9,0,0,0,1.28,0l3-3a.9.9,0,0,0,0-1.28ZM6.65,8.39A5.05,5.05,0,0,0,8.37,6.63L24.28,22.54l-1.74,1.74Zm11.22,1.72,1.54,1.54a.9.9,0,0,0,1.28-1.28L19.15,8.83l1.74-1.74,1.54,1.54A.9.9,0,0,0,23.7,7.35L22.16,5.81,23.9,4.08l4,4-7.77,7.77-4-4Zm-11-4.47A3.28,3.28,0,0,1,5.64,6.89L5.1,5.1ZM8.1,27.92l-4-4,1.74-1.74,1.54,1.54a.9.9,0,0,0,1.28-1.28L7.09,20.89l1.74-1.74,1.54,1.54a.9.9,0,1,0,1.28-1.28l-1.54-1.54,1.74-1.74,4,4Zm17.45-.64-1.73-1.73,1.74-1.74,1.73,1.73Z"/></svg>