<svg id="Layer_1" data-name="Layer 1" xmlns="http://www.w3.org/2000/svg" viewBox="0 0 32 32"><defs><style>.cls-1{fill:#292755;stroke:#292755;stroke-linecap:round;stroke-linejoin:round;stroke-width:0.55px;}</style></defs><title>Thesis-Icons-v2</title><path class="cls-1" d="M31.24,10.86l-.05-.12a2.45,2.45,0,0,0-3.26-1.19h0L24,11.36a2.44,2.44,0,0,0-2.43-2.3h-8.1A11.32,11.32,0,0,0,5.91,12L.81,16.57a.79.79,0,1,0,1.07,1.16L7,13.11a9.79,9.79,0,0,1,6.52-2.51h8.1a.91.91,0,0,1,.9.88.89.89,0,0,1-.89.9H15.16a.78.78,0,0,0,0,1.56H21.6a2.43,2.43,0,0,0,1-.23h0l6-2.77a.9.9,0,0,1,1.19.43l.05.12a.89.89,0,0,1-.43,1.18h0l-9.45,4.39-9.36,0a.78.78,0,0,0-.54.2L5.3,21.55a.78.78,0,0,0,1,1.22l.08-.07,4.51-4.06h9.24a.78.78,0,0,0,.33-.07L30,14.13a2.45,2.45,0,0,0,1.2-3.25v0Z"/></svg>