<svg id="Layer_1" data-name="Layer 1" xmlns="http://www.w3.org/2000/svg" viewBox="0 0 32 32"><defs><style>.cls-1,.cls-2{fill:#2222b5;stroke:#2222b5;stroke-linecap:round;stroke-linejoin:round;}.cls-1{stroke-width:1.2px;}.cls-2{stroke-width:2px;}</style></defs><title>Thesis-Icons-v2</title><path class="cls-1" d="M3.54,30.33c-.25,0-.51-.2-.51-.64V5.58a1,1,0,0,1,1-1H28.1a1,1,0,0,1,1,1V23.34a1,1,0,0,1-1,1H10.33a1.47,1.47,0,0,0-.86.36L4,30.1A.69.69,0,0,1,3.54,30.33ZM4,5.26a.32.32,0,0,0-.32.32v24L9,24.2a2.06,2.06,0,0,1,1.31-.54H28.1a.32.32,0,0,0,.32-.32V5.58a.32.32,0,0,0-.32-.32Z"/><line class="cls-2" x1="7.84" y1="10.49" x2="24.14" y2="10.49"/><line class="cls-2" x1="7.84" y1="18.49" x2="20.9" y2="18.49"/><line class="cls-2" x1="7.84" y1="14.49" x2="16.31" y2="14.49"/></svg>