<?xml version="1.0" encoding="utf-8"?>
<!-- Generator: Adobe Illustrator 21.0.2, SVG Export Plug-In . SVG Version: 6.00 Build 0)  -->
<svg version="1.1" id="Layer_1" xmlns="http://www.w3.org/2000/svg" xmlns:xlink="http://www.w3.org/1999/xlink" x="0px" y="0px"
     viewBox="0 0 59 54" style="enable-background:new 0 0 59 54;" xml:space="preserve">
<style type="text/css">
    .st0{filter:url(#Adobe_OpacityMaskFilter);}
    .st1{fill:#FFFFFF;}
    .st2{mask:url(#mask-2);fill:#FFFFFF;}
    .st3{enable-background:new    ;}
</style>
<title>LOGO</title>
<desc>Created with Sketch.</desc>
<g id="_x30_1C-FilteredContent" transform="translate(-28.000000, -18.000000)">
    <g id="LOGO" transform="translate(-11.000000, 18.000000)">
        <g id="ITP" transform="translate(39.000000, 0.000000)">
            <g id="Group-3" transform="translate(0.000000, 6.857813)">
                <g id="Clip-2">
                </g>
                <defs>
                    <filter id="Adobe_OpacityMaskFilter" filterUnits="userSpaceOnUse" x="0" y="0.3" width="6.9" height="28.8">
                        <feColorMatrix  type="matrix" values="1 0 0 0 0  0 1 0 0 0  0 0 1 0 0  0 0 0 1 0"/>
                    </filter>
                </defs>
                <mask maskUnits="userSpaceOnUse" x="0" y="0.3" width="6.9" height="28.8" id="mask-2">
                    <g class="st0">
                        <polygon id="path-1" class="st1" points="0,0.3 0,29 6.9,29 6.9,0.3                      "/>
                    </g>
                </mask>
                <polyline id="Fill-1" class="st2" points="0.1,0.3 6.9,0.3 6.8,29 0,29 0.1,0.3               "/>
            </g>
            <path id="Fill-4" class="st1" d="M22.5,36.2c-1.1,0-2-0.1-2.9-0.4c-0.9-0.3-1.6-0.7-2.2-1.4c-0.6-0.7-1.1-1.5-1.4-2.6
                c-0.3-1.1-0.5-2.4-0.5-4.1V14.2h-2.9V7.3h2.9V0h6.9v7.3H28v6.9h-5.7v12.2c0,1.8,0.7,2.8,2.2,2.8c1.2,0,2.3-0.4,3.4-1.1v6.5
                c-0.7,0.5-1.5,0.9-2.4,1.2C24.6,36,23.6,36.2,22.5,36.2"/>
            <path id="Fill-5" class="st1" d="M46.3,24.5c0.8,0,1.5-0.1,2.2-0.4c0.7-0.3,1.3-0.7,1.8-1.2c0.5-0.5,0.9-1.2,1.3-1.9
                c0.3-0.7,0.5-1.6,0.5-2.5v-0.1c0-0.9-0.2-1.7-0.5-2.5c-0.3-0.8-0.7-1.4-1.3-1.9c-0.5-0.5-1.1-0.9-1.8-1.2
                c-0.7-0.3-1.4-0.4-2.2-0.4c-0.8,0-1.5,0.1-2.2,0.4c-0.7,0.3-1.3,0.7-1.8,1.2c-0.5,0.5-0.9,1.2-1.2,1.9c-0.3,0.8-0.5,1.6-0.5,2.5
                v0.1c0,0.9,0.2,1.7,0.5,2.5c0.3,0.8,0.7,1.4,1.2,1.9c0.5,0.5,1.1,0.9,1.8,1.2C44.7,24.4,45.5,24.5,46.3,24.5 M33.9,7.5h6.7v3.2
                c0.8-1,1.8-1.9,3-2.6c1.2-0.7,2.6-1,4.4-1c1.4,0,2.7,0.2,4,0.7c1.3,0.5,2.4,1.2,3.4,2.2c1,1,1.8,2.2,2.4,3.6
                c0.6,1.4,0.9,3,0.9,4.9v0.1c0,1.8-0.3,3.4-0.9,4.9c-0.6,1.4-1.4,2.6-2.4,3.6c-1,1-2.1,1.7-3.4,2.2c-1.3,0.5-2.6,0.7-4.1,0.7
                c-1.8,0-3.3-0.3-4.4-1c-1.2-0.7-2.1-1.4-2.9-2.3V36h-6.7V7.5"/>
        </g>
    </g>
</g>
<g class="st3">
    <path class="st1" d="M0,45.8h5.3v1.3H3.4v5.6H1.9v-5.6H0V45.8z"/>
    <path class="st1" d="M12.1,45.8v7h-1.5v-2.8H8.1v2.8H6.6v-7h1.5v2.8h2.5v-2.8H12.1z"/>
    <path class="st1" d="M13.9,45.8h4.4v1.3h-2.9v1.6H18V50h-2.6v1.5h3v1.3h-4.5V45.8z"/>
    <path class="st1" d="M21,50.7c0,0.4,0.4,0.8,1,0.8c0.6,0,1-0.3,1-0.7c0-0.3-0.1-0.6-0.8-0.8l-0.8-0.2c-1.5-0.5-1.8-1.4-1.8-2
        c0-1.2,1.1-2.1,2.4-2.1c1.3,0,2.4,0.8,2.4,2.1h-1.5c0-0.5-0.3-0.8-0.9-0.8c-0.5,0-0.9,0.3-0.9,0.7c0,0.2,0.1,0.5,0.7,0.7l0.8,0.3
        c1.7,0.5,1.9,1.4,1.9,2.1c0,1.4-1.3,2-2.5,2c-1.5,0-2.5-0.9-2.5-2.2H21z"/>
    <path class="st1" d="M27.5,45.8v7H26v-7H27.5z"/>
    <path class="st1" d="M30.5,50.7c0,0.4,0.4,0.8,1,0.8c0.6,0,1-0.3,1-0.7c0-0.3-0.1-0.6-0.8-0.8l-0.8-0.2c-1.5-0.5-1.8-1.4-1.8-2
        c0-1.2,1.1-2.1,2.4-2.1c1.3,0,2.4,0.8,2.4,2.1h-1.5c0-0.5-0.3-0.8-0.9-0.8c-0.5,0-0.9,0.3-0.9,0.7c0,0.2,0.1,0.5,0.7,0.7l0.8,0.3
        c1.7,0.5,1.9,1.4,1.9,2.1c0,1.4-1.3,2-2.5,2C30,52.9,29,52,29,50.7H30.5z"/>
    <path class="st1" d="M37.9,52.7V52l2.7-3.2c0.2-0.2,0.4-0.5,0.4-0.7c0-0.4-0.3-0.7-0.8-0.7c-0.5,0-0.9,0.4-0.9,0.9L37.9,48
        c0.2-1.3,1.1-2.1,2.3-2.1c1.2,0,2.2,0.8,2.2,2c0,0.6-0.3,1.2-0.7,1.7l-1.5,1.7h2v1.3H37.9z"/>
    <path class="st1" d="M46.2,46c1.9,0,2.5,1.5,2.5,3.4c0,1.9-0.5,3.4-2.5,3.4c-1.9,0-2.5-1.5-2.5-3.4C43.8,47.5,44.3,46,46.2,46z
         M46.2,51.5c0.8,0,1-0.9,1-2c0-1.1-0.2-2.1-1-2.1c-0.8,0-1.1,0.9-1.1,2.1C45.2,50.5,45.4,51.5,46.2,51.5z"/>
    <path class="st1" d="M52.5,52.7H51V48l-1.1,0.5v-1.2l2.5-1.2V52.7z"/>
    <path class="st1" d="M59,46.1l-2.9,6.6h-1.6l2.3-5.3H54v-1.3H59z"/>
</g>
</svg>
