<?xml version="1.0" encoding="UTF-8" standalone="no"?>
<svg width="31px" height="32px" viewBox="0 0 31 32" version="1.1" xmlns="http://www.w3.org/2000/svg" xmlns:xlink="http://www.w3.org/1999/xlink">
    <!-- Generator: Sketch 41.2 (35397) - http://www.bohemiancoding.com/sketch -->
    <title>tiny icon copy 11</title>
    <desc>Created with Sketch.</desc>
    <defs>
        <polygon id="path-1" points="1.84807188e-20 0.0960953729 1.84807188e-20 5.17176826 5.07549554 5.17176826 5.07549554 0.0960953729 0 0.0960953729"></polygon>
    </defs>
    <g id="Font---Sofia-+-Lora" stroke="none" stroke-width="1" fill="none" fill-rule="evenodd">
        <g id="01A-Landing-Page" transform="translate(-381.000000, -438.000000)">
            <g id="Icons" transform="translate(-65.000000, 408.000000)">
                <g id="tiny-icon-copy-11" transform="translate(446.000000, 30.000000)">
                    <polyline id="Stroke-1" stroke="#2222B5" stroke-width="2" stroke-linecap="round" stroke-linejoin="round" points="2.53772727 12.6730909 9.68113636 5.46763636 15.5181818 11.3701364 26.9393182 2.53786364"></polyline>
                    <g id="Group-5" transform="translate(0.000000, 10.039159)">
                        <mask id="mask-2" fill="white">
                            <use xlink:href="#path-1"></use>
                        </mask>
                        <g id="Clip-4"></g>
                        <path d="M4.34004545,4.42063636 C3.35345455,5.41609091 1.74640909,5.42290909 0.750954545,4.43631818 C-0.2445,3.44972727 -0.251318182,1.84268182 0.735272727,0.847227273 C1.72186364,-0.148227273 3.32890909,-0.155045455 4.32436364,0.831545455 C5.31981818,1.81813636 5.32663636,3.42518182 4.34004545,4.42063636" id="Fill-3" fill="#2222B5" mask="url(#mask-2)"></path>
                    </g>
                    <path d="M28.49175,4.54540909 C29.6003864,3.68836364 29.80425,2.09359091 28.9465227,0.985636364 C28.0894773,-0.123 26.4953864,-0.326863636 25.38675,0.530181818 C24.2781136,1.38790909 24.07425,2.982 24.9319773,4.09063636 C25.7890227,5.19927273 27.3831136,5.40245455 28.49175,4.54540909" id="Fill-6" fill="#2222B5"></path>
                    <polyline id="Stroke-8" stroke="#2222B5" stroke-width="2" stroke-linecap="round" stroke-linejoin="round" points="18.0121364 21.4421591 18.0121364 30.8348864 11.7032727 30.8348864 11.7032727 17.7446591 18.0121364 17.7446591 18.0121364 21.4421591"></polyline>
                    <polyline id="Stroke-10" stroke="#2222B5" stroke-width="2" stroke-linecap="round" stroke-linejoin="round" points="7.61611364 24.8530909 7.61611364 30.8346818 1.30725 30.8346818 1.30725 22.4980909 7.61611364 22.4980909 7.61611364 24.8530909"></polyline>
                    <polyline id="Stroke-12" stroke="#2222B5" stroke-width="2" stroke-linecap="round" stroke-linejoin="round" points="29.0674773 17.0081591 29.0674773 30.83475 22.7586136 30.83475 22.7586136 11.5652045 29.0674773 11.5652045 29.0674773 17.0081591"></polyline>
                </g>
            </g>
        </g>
    </g>
</svg>