<svg id="Layer_1" data-name="Layer 1" xmlns="http://www.w3.org/2000/svg" viewBox="0 0 32 32"><defs><style>.cls-1{fill:none;stroke:#292755;stroke-linecap:round;stroke-linejoin:round;stroke-width:2px;}</style></defs><title>Thesis-Icons-v2</title><path class="cls-1" d="M20.25,12.68a2.12,2.12,0,0,0-1.27.43v-.25a2.13,2.13,0,0,0-2.13-2.14h0a2.11,2.11,0,0,0-.62.1v-5a2.13,2.13,0,1,0-4.27,0V16.47l-1.05-3.2a2.13,2.13,0,0,0-2.69-1.36h0A2.13,2.13,0,0,0,6.85,14.6h0s1.68,11,4.62,12.4a14.45,14.45,0,0,0,11,.58c1.94-1.9,1.87-3.56,2.14-5.08s.53-6.09.53-6.09A2.13,2.13,0,0,0,23,14.28h0a2.11,2.11,0,0,0-.67.12A2.13,2.13,0,0,0,20.25,12.68Z"/></svg>