<svg id="Layer_1" data-name="Layer 1" xmlns="http://www.w3.org/2000/svg" viewBox="0 0 32 32"><defs><style>.cls-1{fill:#292755;}</style></defs><title>Thesis-Icons-v2</title><path class="cls-1" d="M26.81,5.76H5.18A4.67,4.67,0,0,0,.52,10.42v10a4.67,4.67,0,0,0,4.66,4.66h5.25a3.81,3.81,0,0,0,3.3-1.89l1.65-4.31a.69.69,0,0,1,.64-.45.65.65,0,0,1,.64.44l1.65,4.28.06.09a3.89,3.89,0,0,0,3.27,1.83h5.06a4.78,4.78,0,0,0,4.77-4.77V10.42A4.67,4.67,0,0,0,26.81,5.76ZM29.44,20.4a2.64,2.64,0,0,1-2.59,2.67h-5.2a1.76,1.76,0,0,1-1.48-.75l-1.6-4.17a2.66,2.66,0,0,0-2.52-1.74H16a2.66,2.66,0,0,0-2.49,1.74l-1.55,4.08a1.77,1.77,0,0,1-1.52.84H5.18A2.68,2.68,0,0,1,2.51,20.4v-10A2.68,2.68,0,0,1,5.18,7.75H26.81a2.65,2.65,0,0,1,1.53.49,2.56,2.56,0,0,1,1.1,2.19Z"/><circle class="cls-1" cx="9.4" cy="15.13" r="2.72"/><circle class="cls-1" cx="23.17" cy="15.13" r="2.72"/></svg>