<svg id="Layer_1" data-name="Layer 1" xmlns="http://www.w3.org/2000/svg" viewBox="0 0 32 32"><defs><style>.cls-1{fill:#2222b5;}</style></defs><title>Thesis-Icons-v2</title><path class="cls-1" d="M31.13,5.15a1.7,1.7,0,0,0-1-.75L22.56,1.87a2.09,2.09,0,0,0-2.3.32,2.22,2.22,0,0,0-.53,1.1A4,4,0,0,1,16,6.2h0a4.05,4.05,0,0,1-3.75-2.91,2.61,2.61,0,0,0-.43-1C11,1.25,9.63,1.77,9.05,2l-.24.09-2.36.77q-2.31.76-4.6,1.56A1.71,1.71,0,0,0,.94,5,1.73,1.73,0,0,0,.71,6.29l1,7.22a1.71,1.71,0,0,0,.52,1.1A1.71,1.71,0,0,0,3.35,15l1.88,0L6.39,28.36A2.09,2.09,0,0,0,7.25,30a2.06,2.06,0,0,0,1.12.26l15.08,0a2.27,2.27,0,0,0,1.06-.2,2.31,2.31,0,0,0,1.1-2L26.75,15h1.87a1.53,1.53,0,0,0,1.67-1.45l1-7.3A1.69,1.69,0,0,0,31.13,5.15ZM23.49,28.24h0l-15,0v0L8.31,26.3H23.67l-.14,1.65A2.79,2.79,0,0,1,23.49,28.24Zm4.77-15.32-3.43,0-1,11.35H8.14L7.16,13l-3.45-.05L2.82,6.29,7.11,4.85l2.35-.77.36-.13.4-.15v0l0,.11a6.06,6.06,0,0,0,5.81,4.35,6.14,6.14,0,0,0,5.7-4.48l.14,0,7.28,2.43Z"/></svg>